<svg xmlns="http://www.w3.org/2000/svg" xmlns:xlink="http://www.w3.org/1999/xlink" width="250" zoomAndPan="magnify" viewBox="0 0 187.5 419.999983" height="560" preserveAspectRatio="xMidYMid meet" version="1.0"><defs><clipPath id="759ca9cbc9"><path d="M 37.410156 0.671875 L 176.4375 0.671875 L 176.4375 413.15625 L 37.410156 413.15625 Z M 37.410156 0.671875 " clip-rule="nonzero"/></clipPath><clipPath id="bca6f4e37b"><path d="M 0.613281 0.808594 L 33.324219 0.808594 L 33.324219 413.300781 L 0.613281 413.300781 Z M 0.613281 0.808594 " clip-rule="nonzero"/></clipPath><clipPath id="d315a8a708"><path d="M 0.613281 0.835938 L 33.324219 0.835938 L 33.324219 413.300781 L 0.613281 413.300781 Z M 0.613281 0.835938 " clip-rule="nonzero"/></clipPath><clipPath id="b002aec292"><rect x="0" width="34" y="0" height="414"/></clipPath><clipPath id="a1cf5b25c3"><rect x="0" width="177" y="0" height="414"/></clipPath></defs><g transform="matrix(1, 0, 0, 1, 5, 3)"><g clip-path="url(#a1cf5b25c3)"><g clip-path="url(#759ca9cbc9)"><path fill="#ffe575" d="M 176.390625 369.8125 L 176.390625 407.960938 C 176.390625 410.4375 174.378906 412.449219 171.902344 412.449219 L 152.632812 412.449219 C 150.15625 412.449219 148.144531 410.4375 148.144531 407.960938 L 148.144531 369.8125 C 148.144531 367.335938 150.15625 365.324219 152.632812 365.324219 L 171.902344 365.324219 C 174.378906 365.324219 176.390625 367.335938 176.390625 369.8125 Z M 139.246094 273.472656 L 139.246094 292.894531 C 139.246094 295.371094 137.234375 297.382812 134.757812 297.382812 L 115.488281 297.382812 C 113.011719 297.382812 111 295.371094 111 292.894531 L 111 273.472656 C 111 270.996094 113.011719 268.984375 115.488281 268.984375 L 134.757812 268.984375 C 137.234375 268.984375 139.246094 270.996094 139.246094 273.472656 Z M 139.476562 91.777344 L 139.476562 111.199219 C 139.476562 113.675781 137.464844 115.6875 134.988281 115.6875 L 115.722656 115.6875 C 113.246094 115.6875 111.234375 113.675781 111.234375 111.199219 L 111.234375 91.777344 C 111.234375 89.300781 113.246094 87.289062 115.722656 87.289062 L 134.988281 87.289062 C 137.464844 87.289062 139.476562 89.300781 139.476562 91.777344 Z M 139.402344 128.148438 L 139.402344 147.570312 C 139.402344 150.046875 137.390625 152.058594 134.914062 152.058594 L 115.644531 152.058594 C 113.167969 152.058594 111.15625 150.046875 111.15625 147.570312 L 111.15625 128.148438 C 111.15625 125.671875 113.167969 123.660156 115.644531 123.660156 L 134.914062 123.660156 C 137.390625 123.660156 139.402344 125.671875 139.402344 128.148438 Z M 139.324219 164.515625 L 139.324219 183.941406 C 139.324219 186.417969 137.3125 188.429688 134.835938 188.429688 L 115.566406 188.429688 C 113.089844 188.429688 111.078125 186.417969 111.078125 183.941406 L 111.078125 164.515625 C 111.078125 162.042969 113.089844 160.027344 115.566406 160.027344 L 134.835938 160.027344 C 137.3125 160.027344 139.324219 162.042969 139.324219 164.515625 Z M 139.246094 200.886719 L 139.246094 220.308594 C 139.246094 222.785156 137.234375 224.796875 134.757812 224.796875 L 115.488281 224.796875 C 113.011719 224.796875 111 222.785156 111 220.308594 L 111 200.886719 C 111 198.410156 113.011719 196.398438 115.488281 196.398438 L 134.757812 196.398438 C 137.234375 196.398438 139.246094 198.410156 139.246094 200.886719 Z M 139.167969 237.257812 L 139.167969 256.679688 C 139.167969 259.15625 137.15625 261.167969 134.679688 261.167969 L 115.414062 261.167969 C 112.9375 261.167969 110.925781 259.15625 110.925781 256.679688 L 110.925781 237.257812 C 110.925781 234.78125 112.9375 232.769531 115.414062 232.769531 L 134.679688 232.769531 C 137.15625 232.769531 139.167969 234.78125 139.167969 237.257812 Z M 139.089844 309.917969 L 139.089844 329.339844 C 139.089844 331.816406 137.078125 333.828125 134.601562 333.828125 L 115.335938 333.828125 C 112.859375 333.828125 110.847656 331.816406 110.847656 329.339844 L 110.847656 309.917969 C 110.847656 307.441406 112.859375 305.429688 115.335938 305.429688 L 134.601562 305.429688 C 137.078125 305.429688 139.089844 307.441406 139.089844 309.917969 Z M 102.875 71.734375 L 102.875 91.160156 C 102.875 93.636719 100.863281 95.648438 98.386719 95.648438 L 79.121094 95.648438 C 76.644531 95.648438 74.632812 93.636719 74.632812 91.160156 L 74.632812 71.734375 C 74.632812 69.261719 76.644531 67.246094 79.121094 67.246094 L 98.386719 67.246094 C 100.863281 67.246094 102.875 69.261719 102.875 71.734375 Z M 102.800781 108.105469 L 102.800781 127.527344 C 102.800781 130.003906 100.789062 132.015625 98.3125 132.015625 L 79.042969 132.015625 C 76.566406 132.015625 74.554688 130.003906 74.554688 127.527344 L 74.554688 108.105469 C 74.554688 105.628906 76.566406 103.617188 79.042969 103.617188 L 98.3125 103.617188 C 100.789062 103.617188 102.800781 105.628906 102.800781 108.105469 Z M 102.722656 144.476562 L 102.722656 163.898438 C 102.722656 166.375 100.710938 168.386719 98.234375 168.386719 L 78.964844 168.386719 C 76.488281 168.386719 74.476562 166.375 74.476562 163.898438 L 74.476562 144.476562 C 74.476562 142 76.488281 139.988281 78.964844 139.988281 L 98.234375 139.988281 C 100.710938 139.988281 102.722656 142 102.722656 144.476562 Z M 102.644531 180.84375 L 102.644531 200.269531 C 102.644531 202.742188 100.632812 204.757812 98.15625 204.757812 L 78.886719 204.757812 C 76.410156 204.757812 74.398438 202.742188 74.398438 200.269531 L 74.398438 180.84375 C 74.398438 178.367188 76.410156 176.355469 78.886719 176.355469 L 98.15625 176.355469 C 100.632812 176.355469 102.644531 178.367188 102.644531 180.84375 Z M 102.566406 217.214844 L 102.566406 236.636719 C 102.566406 239.113281 100.554688 241.125 98.078125 241.125 L 78.8125 241.125 C 76.335938 241.125 74.324219 239.113281 74.324219 236.636719 L 74.324219 217.214844 C 74.324219 214.738281 76.335938 212.726562 78.8125 212.726562 L 98.078125 212.726562 C 100.554688 212.726562 102.566406 214.738281 102.566406 217.214844 Z M 102.488281 253.585938 L 102.488281 273.007812 C 102.488281 275.484375 100.476562 277.496094 98 277.496094 L 78.734375 277.496094 C 76.257812 277.496094 74.246094 275.484375 74.246094 273.007812 L 74.246094 253.585938 C 74.246094 251.109375 76.257812 249.097656 78.734375 249.097656 L 98 249.097656 C 100.476562 249.097656 102.488281 251.109375 102.488281 253.585938 Z M 102.414062 289.953125 L 102.414062 309.375 C 102.414062 311.851562 100.398438 313.863281 97.925781 313.863281 L 78.65625 313.863281 C 76.179688 313.863281 74.167969 311.851562 74.167969 309.375 L 74.167969 289.953125 C 74.167969 287.476562 76.179688 285.464844 78.65625 285.464844 L 97.925781 285.464844 C 100.398438 285.464844 102.414062 287.476562 102.414062 289.953125 Z M 102.335938 326.324219 L 102.335938 345.746094 C 102.335938 348.222656 100.324219 350.234375 97.847656 350.234375 L 78.578125 350.234375 C 76.101562 350.234375 74.089844 348.222656 74.089844 345.746094 L 74.089844 326.324219 C 74.089844 323.847656 76.101562 321.835938 78.578125 321.835938 L 97.847656 321.835938 C 100.324219 321.835938 102.335938 323.847656 102.335938 326.324219 Z M 66.273438 98.199219 L 66.273438 117.625 C 66.273438 120.101562 64.261719 122.113281 61.785156 122.113281 L 42.519531 122.113281 C 40.042969 122.113281 38.03125 120.101562 38.03125 117.625 L 38.03125 98.199219 C 38.03125 95.722656 40.042969 93.710938 42.519531 93.710938 L 61.785156 93.710938 C 64.261719 93.710938 66.273438 95.722656 66.273438 98.199219 Z M 66.199219 134.570312 L 66.199219 153.992188 C 66.199219 156.46875 64.183594 158.480469 61.710938 158.480469 L 42.441406 158.480469 C 39.964844 158.480469 37.953125 156.46875 37.953125 153.992188 L 37.953125 134.570312 C 37.953125 132.09375 39.964844 130.082031 42.441406 130.082031 L 61.710938 130.082031 C 64.183594 130.082031 66.199219 132.09375 66.199219 134.570312 Z M 66.121094 170.941406 L 66.121094 190.363281 C 66.121094 192.839844 64.109375 194.851562 61.632812 194.851562 L 42.363281 194.851562 C 39.886719 194.851562 37.875 192.839844 37.875 190.363281 L 37.875 170.941406 C 37.875 168.464844 39.886719 166.453125 42.363281 166.453125 L 61.632812 166.453125 C 64.109375 166.453125 66.121094 168.464844 66.121094 170.941406 Z M 66.042969 207.308594 L 66.042969 226.734375 C 66.042969 229.207031 64.03125 231.21875 61.554688 231.21875 L 42.285156 231.21875 C 39.808594 231.21875 37.796875 229.207031 37.796875 226.734375 L 37.796875 207.308594 C 37.796875 204.832031 39.808594 202.820312 42.285156 202.820312 L 61.554688 202.820312 C 64.03125 202.820312 66.042969 204.832031 66.042969 207.308594 Z M 65.964844 243.679688 L 65.964844 263.101562 C 65.964844 265.578125 63.953125 267.589844 61.476562 267.589844 L 42.207031 267.589844 C 39.734375 267.589844 37.71875 265.578125 37.71875 263.101562 L 37.71875 243.679688 C 37.71875 241.203125 39.734375 239.191406 42.207031 239.191406 L 61.476562 239.191406 C 63.953125 239.191406 65.964844 241.203125 65.964844 243.679688 Z M 65.886719 280.046875 L 65.886719 299.472656 C 65.886719 301.949219 63.875 303.960938 61.398438 303.960938 L 42.132812 303.960938 C 39.65625 303.960938 37.644531 301.949219 37.644531 299.472656 L 37.644531 280.046875 C 37.644531 277.574219 39.65625 275.5625 42.132812 275.5625 L 61.398438 275.5625 C 63.875 275.5625 65.886719 277.574219 65.886719 280.046875 Z M 65.808594 316.417969 L 65.808594 335.839844 C 65.808594 338.316406 63.796875 340.328125 61.320312 340.328125 L 42.054688 340.328125 C 39.578125 340.328125 37.566406 338.316406 37.566406 335.839844 L 37.566406 316.417969 C 37.566406 313.941406 39.578125 311.929688 42.054688 311.929688 L 61.320312 311.929688 C 63.796875 311.929688 65.808594 313.941406 65.808594 316.417969 Z M 65.734375 352.789062 L 65.734375 372.210938 C 65.734375 374.6875 63.722656 376.699219 61.246094 376.699219 L 41.976562 376.699219 C 39.5 376.699219 37.488281 374.6875 37.488281 372.210938 L 37.488281 352.789062 C 37.488281 350.3125 39.5 348.300781 41.976562 348.300781 L 61.246094 348.300781 C 63.722656 348.300781 65.734375 350.3125 65.734375 352.789062 Z M 65.65625 389.15625 L 65.65625 408.582031 C 65.65625 411.058594 63.644531 413.070312 61.167969 413.070312 L 41.898438 413.070312 C 39.421875 413.070312 37.410156 411.058594 37.410156 408.582031 L 37.410156 389.15625 C 37.410156 386.679688 39.421875 384.667969 41.898438 384.667969 L 61.167969 384.667969 C 63.644531 384.667969 65.65625 386.679688 65.65625 389.15625 Z M 66.507812 5.1875 L 66.507812 80.710938 C 66.507812 83.1875 64.496094 85.199219 62.019531 85.199219 L 42.75 85.199219 C 40.273438 85.199219 38.261719 83.1875 38.261719 80.710938 L 38.261719 5.1875 C 38.261719 2.710938 40.273438 0.699219 42.75 0.699219 L 62.019531 0.699219 C 64.496094 0.699219 66.507812 2.710938 66.507812 5.1875 Z M 139.402344 5.1875 L 139.402344 74.832031 C 139.402344 77.308594 137.390625 79.320312 134.914062 79.320312 L 115.644531 79.320312 C 113.167969 79.320312 111.15625 77.308594 111.15625 74.832031 L 111.15625 5.1875 C 111.15625 2.710938 113.167969 0.699219 115.644531 0.699219 L 134.914062 0.699219 C 137.390625 0.699219 139.402344 2.710938 139.402344 5.1875 Z M 102.101562 5.1875 L 102.101562 54.402344 C 102.101562 56.878906 100.089844 58.890625 97.613281 58.890625 L 78.347656 58.890625 C 75.871094 58.890625 73.859375 56.878906 73.859375 54.402344 L 73.859375 5.1875 C 73.859375 2.710938 75.871094 0.699219 78.347656 0.699219 L 97.613281 0.699219 C 100.089844 0.699219 102.101562 2.710938 102.101562 5.1875 Z M 102.101562 363.003906 L 102.101562 408.65625 C 102.101562 411.132812 100.089844 413.144531 97.613281 413.144531 L 78.347656 413.144531 C 75.871094 413.144531 73.859375 411.132812 73.859375 408.65625 L 73.859375 363.003906 C 73.859375 360.527344 75.871094 358.515625 78.347656 358.515625 L 97.613281 358.515625 C 100.089844 358.515625 102.101562 360.527344 102.101562 363.003906 Z M 138.550781 346.828125 L 138.550781 408.582031 C 138.550781 411.058594 136.539062 413.070312 134.0625 413.070312 L 114.792969 413.070312 C 112.316406 413.070312 110.304688 411.058594 110.304688 408.582031 L 110.304688 346.828125 C 110.304688 344.351562 112.316406 342.339844 114.792969 342.339844 L 134.0625 342.339844 C 136.539062 342.339844 138.550781 344.351562 138.550781 346.828125 Z M 147.527344 87.597656 L 147.527344 60.671875 C 147.527344 58.195312 149.539062 56.183594 152.015625 56.183594 L 171.28125 56.183594 C 173.757812 56.183594 175.769531 58.195312 175.769531 60.671875 L 175.769531 87.597656 C 175.769531 90.074219 173.757812 92.085938 171.28125 92.085938 L 152.015625 92.085938 C 149.539062 92.085938 147.527344 90.074219 147.527344 87.597656 Z M 147.527344 43.644531 L 147.527344 5.496094 C 147.527344 3.019531 149.539062 1.007812 152.015625 1.007812 L 171.28125 1.007812 C 173.757812 1.007812 175.769531 3.019531 175.769531 5.496094 L 175.769531 43.644531 C 175.769531 46.121094 173.757812 48.132812 171.28125 48.132812 L 152.015625 48.132812 C 149.539062 48.132812 147.527344 46.121094 147.527344 43.644531 Z M 175.769531 104.46875 L 175.769531 309.609375 C 175.769531 312.085938 173.757812 314.097656 171.28125 314.097656 L 152.015625 314.097656 C 149.539062 314.097656 147.527344 312.085938 147.527344 309.609375 L 147.527344 104.46875 C 147.527344 101.992188 149.539062 99.980469 152.015625 99.980469 L 171.28125 99.980469 C 173.757812 99.980469 175.769531 101.992188 175.769531 104.46875 Z M 175.769531 326.476562 L 175.769531 353.40625 C 175.769531 355.882812 173.757812 357.894531 171.28125 357.894531 L 152.015625 357.894531 C 149.539062 357.894531 147.527344 355.882812 147.527344 353.40625 L 147.527344 326.476562 C 147.527344 324 149.539062 321.988281 152.015625 321.988281 L 171.28125 321.988281 C 173.757812 321.988281 175.769531 324 175.769531 326.476562 Z M 175.769531 326.476562 " fill-opacity="1" fill-rule="evenodd"/></g><g clip-path="url(#bca6f4e37b)"><g transform="matrix(1, 0, 0, 1, 0, -0.000000000000001332)"><g clip-path="url(#b002aec292)"><g clip-path="url(#d315a8a708)"><path fill="#ffe575" d="M 139.59375 44.179688 L 139.59375 6.027344 C 139.59375 3.550781 137.582031 1.539062 135.105469 1.539062 L 115.835938 1.539062 C 113.359375 1.539062 111.347656 3.550781 111.347656 6.027344 L 111.347656 44.179688 C 111.347656 46.652344 113.359375 48.667969 115.835938 48.667969 L 135.105469 48.667969 C 137.582031 48.667969 139.59375 46.652344 139.59375 44.179688 Z M 102.449219 140.519531 L 102.449219 121.097656 C 102.449219 118.621094 100.4375 116.609375 97.960938 116.609375 L 78.691406 116.609375 C 76.214844 116.609375 74.203125 118.621094 74.203125 121.097656 L 74.203125 140.519531 C 74.203125 142.996094 76.214844 145.007812 78.691406 145.007812 L 97.960938 145.007812 C 100.4375 145.007812 102.449219 142.996094 102.449219 140.519531 Z M 102.679688 322.210938 L 102.679688 302.789062 C 102.679688 300.3125 100.667969 298.300781 98.191406 298.300781 L 78.925781 298.300781 C 76.449219 298.300781 74.4375 300.3125 74.4375 302.789062 L 74.4375 322.210938 C 74.4375 324.6875 76.449219 326.699219 78.925781 326.699219 L 98.191406 326.699219 C 100.667969 326.699219 102.679688 324.6875 102.679688 322.210938 Z M 102.605469 285.84375 L 102.605469 266.417969 C 102.605469 263.941406 100.59375 261.929688 98.117188 261.929688 L 78.847656 261.929688 C 76.371094 261.929688 74.359375 263.941406 74.359375 266.417969 L 74.359375 285.84375 C 74.359375 288.320312 76.371094 290.332031 78.847656 290.332031 L 98.117188 290.332031 C 100.59375 290.332031 102.605469 288.320312 102.605469 285.84375 Z M 102.527344 249.472656 L 102.527344 230.050781 C 102.527344 227.574219 100.515625 225.5625 98.039062 225.5625 L 78.769531 225.5625 C 76.292969 225.5625 74.28125 227.574219 74.28125 230.050781 L 74.28125 249.472656 C 74.28125 251.949219 76.292969 253.960938 78.769531 253.960938 L 98.039062 253.960938 C 100.515625 253.960938 102.527344 251.949219 102.527344 249.472656 Z M 102.449219 213.101562 L 102.449219 193.679688 C 102.449219 191.203125 100.4375 189.191406 97.960938 189.191406 L 78.691406 189.191406 C 76.214844 189.191406 74.203125 191.203125 74.203125 193.679688 L 74.203125 213.101562 C 74.203125 215.578125 76.214844 217.589844 78.691406 217.589844 L 97.960938 217.589844 C 100.4375 217.589844 102.449219 215.578125 102.449219 213.101562 Z M 102.371094 176.734375 L 102.371094 157.3125 C 102.371094 154.835938 100.359375 152.824219 97.882812 152.824219 L 78.617188 152.824219 C 76.140625 152.824219 74.128906 154.835938 74.128906 157.3125 L 74.128906 176.734375 C 74.128906 179.210938 76.140625 181.222656 78.617188 181.222656 L 97.882812 181.222656 C 100.359375 181.222656 102.371094 179.210938 102.371094 176.734375 Z M 102.292969 104.070312 L 102.292969 84.648438 C 102.292969 82.171875 100.28125 80.160156 97.804688 80.160156 L 78.539062 80.160156 C 76.0625 80.160156 74.050781 82.171875 74.050781 84.648438 L 74.050781 104.070312 C 74.050781 106.546875 76.0625 108.558594 78.539062 108.558594 L 97.804688 108.558594 C 100.28125 108.558594 102.292969 106.546875 102.292969 104.070312 Z M 66.078125 342.253906 L 66.078125 322.832031 C 66.078125 320.355469 64.066406 318.34375 61.589844 318.34375 L 42.324219 318.34375 C 39.847656 318.34375 37.835938 320.355469 37.835938 322.832031 L 37.835938 342.253906 C 37.835938 344.730469 39.847656 346.742188 42.324219 346.742188 L 61.589844 346.742188 C 64.066406 346.742188 66.078125 344.730469 66.078125 342.253906 Z M 66.003906 305.882812 L 66.003906 286.460938 C 66.003906 283.984375 63.988281 281.972656 61.515625 281.972656 L 42.246094 281.972656 C 39.769531 281.972656 37.757812 283.984375 37.757812 286.460938 L 37.757812 305.882812 C 37.757812 308.359375 39.769531 310.371094 42.246094 310.371094 L 61.515625 310.371094 C 63.988281 310.371094 66.003906 308.359375 66.003906 305.882812 Z M 65.925781 269.515625 L 65.925781 250.089844 C 65.925781 247.617188 63.914062 245.605469 61.4375 245.605469 L 42.167969 245.605469 C 39.691406 245.605469 37.679688 247.617188 37.679688 250.089844 L 37.679688 269.515625 C 37.679688 271.992188 39.691406 274.003906 42.167969 274.003906 L 61.4375 274.003906 C 63.914062 274.003906 65.925781 271.992188 65.925781 269.515625 Z M 65.847656 233.144531 L 65.847656 213.722656 C 65.847656 211.246094 63.835938 209.234375 61.359375 209.234375 L 42.089844 209.234375 C 39.613281 209.234375 37.601562 211.246094 37.601562 213.722656 L 37.601562 233.144531 C 37.601562 235.621094 39.613281 237.632812 42.089844 237.632812 L 61.359375 237.632812 C 63.835938 237.632812 65.847656 235.621094 65.847656 233.144531 Z M 65.769531 196.777344 L 65.769531 177.351562 C 65.769531 174.875 63.757812 172.863281 61.28125 172.863281 L 42.011719 172.863281 C 39.539062 172.863281 37.523438 174.875 37.523438 177.351562 L 37.523438 196.777344 C 37.523438 199.25 39.539062 201.261719 42.011719 201.261719 L 61.28125 201.261719 C 63.757812 201.261719 65.769531 199.25 65.769531 196.777344 Z M 65.691406 160.40625 L 65.691406 140.984375 C 65.691406 138.507812 63.679688 136.496094 61.203125 136.496094 L 41.9375 136.496094 C 39.460938 136.496094 37.449219 138.507812 37.449219 140.984375 L 37.449219 160.40625 C 37.449219 162.882812 39.460938 164.894531 41.9375 164.894531 L 61.203125 164.894531 C 63.679688 164.894531 65.691406 162.882812 65.691406 160.40625 Z M 65.613281 124.035156 L 65.613281 104.613281 C 65.613281 102.136719 63.601562 100.125 61.125 100.125 L 41.859375 100.125 C 39.382812 100.125 37.371094 102.136719 37.371094 104.613281 L 37.371094 124.035156 C 37.371094 126.511719 39.382812 128.523438 41.859375 128.523438 L 61.125 128.523438 C 63.601562 128.523438 65.613281 126.511719 65.613281 124.035156 Z M 65.539062 87.667969 L 65.539062 68.242188 C 65.539062 65.765625 63.527344 63.753906 61.050781 63.753906 L 41.78125 63.753906 C 39.304688 63.753906 37.292969 65.765625 37.292969 68.242188 L 37.292969 87.667969 C 37.292969 90.144531 39.304688 92.15625 41.78125 92.15625 L 61.050781 92.15625 C 63.527344 92.15625 65.539062 90.144531 65.539062 87.667969 Z M 29.476562 315.789062 L 29.476562 296.367188 C 29.476562 293.890625 27.464844 291.878906 24.988281 291.878906 L 5.722656 291.878906 C 3.246094 291.878906 1.234375 293.890625 1.234375 296.367188 L 1.234375 315.789062 C 1.234375 318.265625 3.246094 320.277344 5.722656 320.277344 L 24.988281 320.277344 C 27.464844 320.277344 29.476562 318.265625 29.476562 315.789062 Z M 29.398438 279.417969 L 29.398438 259.996094 C 29.398438 257.519531 27.386719 255.507812 24.910156 255.507812 L 5.644531 255.507812 C 3.167969 255.507812 1.15625 257.519531 1.15625 259.996094 L 1.15625 279.417969 C 1.15625 281.894531 3.167969 283.90625 5.644531 283.90625 L 24.910156 283.90625 C 27.386719 283.90625 29.398438 281.894531 29.398438 279.417969 Z M 29.324219 243.050781 L 29.324219 223.628906 C 29.324219 221.152344 27.3125 219.140625 24.835938 219.140625 L 5.566406 219.140625 C 3.089844 219.140625 1.078125 221.152344 1.078125 223.628906 L 1.078125 243.050781 C 1.078125 245.527344 3.089844 247.539062 5.566406 247.539062 L 24.835938 247.539062 C 27.3125 247.539062 29.324219 245.527344 29.324219 243.050781 Z M 29.246094 206.679688 L 29.246094 187.257812 C 29.246094 184.78125 27.234375 182.769531 24.757812 182.769531 L 5.488281 182.769531 C 3.011719 182.769531 1 184.78125 1 187.257812 L 1 206.679688 C 1 209.15625 3.011719 211.167969 5.488281 211.167969 L 24.757812 211.167969 C 27.234375 211.167969 29.246094 209.15625 29.246094 206.679688 Z M 29.167969 170.3125 L 29.167969 150.886719 C 29.167969 148.410156 27.15625 146.398438 24.679688 146.398438 L 5.410156 146.398438 C 2.9375 146.398438 0.921875 148.410156 0.921875 150.886719 L 0.921875 170.3125 C 0.921875 172.785156 2.9375 174.800781 5.410156 174.800781 L 24.679688 174.800781 C 27.15625 174.800781 29.167969 172.785156 29.167969 170.3125 Z M 29.089844 133.941406 L 29.089844 114.519531 C 29.089844 112.042969 27.078125 110.03125 24.601562 110.03125 L 5.335938 110.03125 C 2.859375 110.03125 0.847656 112.042969 0.847656 114.519531 L 0.847656 133.941406 C 0.847656 136.417969 2.859375 138.429688 5.335938 138.429688 L 24.601562 138.429688 C 27.078125 138.429688 29.089844 136.417969 29.089844 133.941406 Z M 29.011719 97.570312 L 29.011719 78.148438 C 29.011719 75.671875 27 73.660156 24.523438 73.660156 L 5.257812 73.660156 C 2.78125 73.660156 0.769531 75.671875 0.769531 78.148438 L 0.769531 97.570312 C 0.769531 100.046875 2.78125 102.058594 5.257812 102.058594 L 24.523438 102.058594 C 27 102.058594 29.011719 100.046875 29.011719 97.570312 Z M 28.9375 61.203125 L 28.9375 41.777344 C 28.9375 39.304688 26.925781 37.289062 24.449219 37.289062 L 5.179688 37.289062 C 2.703125 37.289062 0.691406 39.304688 0.691406 41.777344 L 0.691406 61.203125 C 0.691406 63.679688 2.703125 65.691406 5.179688 65.691406 L 24.449219 65.691406 C 26.925781 65.691406 28.9375 63.679688 28.9375 61.203125 Z M 28.859375 24.832031 L 28.859375 5.410156 C 28.859375 2.933594 26.847656 0.921875 24.371094 0.921875 L 5.101562 0.921875 C 2.625 0.921875 0.613281 2.933594 0.613281 5.410156 L 0.613281 24.832031 C 0.613281 27.308594 2.625 29.320312 5.101562 29.320312 L 24.371094 29.320312 C 26.847656 29.320312 28.859375 27.308594 28.859375 24.832031 Z M 29.710938 408.800781 L 29.710938 333.277344 C 29.710938 330.800781 27.699219 328.789062 25.222656 328.789062 L 5.953125 328.789062 C 3.476562 328.789062 1.464844 330.800781 1.464844 333.277344 L 1.464844 408.800781 C 1.464844 411.277344 3.476562 413.289062 5.953125 413.289062 L 25.222656 413.289062 C 27.699219 413.289062 29.710938 411.277344 29.710938 408.800781 Z M 102.605469 408.800781 L 102.605469 339.160156 C 102.605469 336.683594 100.59375 334.671875 98.117188 334.671875 L 78.847656 334.671875 C 76.371094 334.671875 74.359375 336.683594 74.359375 339.160156 L 74.359375 408.800781 C 74.359375 411.277344 76.371094 413.289062 78.847656 413.289062 L 98.117188 413.289062 C 100.59375 413.289062 102.605469 411.277344 102.605469 408.800781 Z M 65.304688 408.800781 L 65.304688 359.585938 C 65.304688 357.109375 63.292969 355.097656 60.816406 355.097656 L 41.550781 355.097656 C 39.074219 355.097656 37.0625 357.109375 37.0625 359.585938 L 37.0625 408.800781 C 37.0625 411.277344 39.074219 413.289062 41.550781 413.289062 L 60.816406 413.289062 C 63.292969 413.289062 65.304688 411.277344 65.304688 408.800781 Z M 65.304688 50.988281 L 65.304688 5.332031 C 65.304688 2.855469 63.292969 0.84375 60.816406 0.84375 L 41.550781 0.84375 C 39.074219 0.84375 37.0625 2.855469 37.0625 5.332031 L 37.0625 50.988281 C 37.0625 53.464844 39.074219 55.476562 41.550781 55.476562 L 60.816406 55.476562 C 63.292969 55.476562 65.304688 53.464844 65.304688 50.988281 Z M 101.753906 67.160156 L 101.753906 5.410156 C 101.753906 2.933594 99.742188 0.921875 97.265625 0.921875 L 77.996094 0.921875 C 75.519531 0.921875 73.507812 2.933594 73.507812 5.410156 L 73.507812 67.160156 C 73.507812 69.636719 75.519531 71.648438 77.996094 71.648438 L 97.265625 71.648438 C 99.742188 71.648438 101.753906 69.636719 101.753906 67.160156 Z M 110.730469 326.390625 L 110.730469 353.320312 C 110.730469 355.796875 112.742188 357.808594 115.21875 357.808594 L 134.484375 357.808594 C 136.960938 357.808594 138.972656 355.796875 138.972656 353.320312 L 138.972656 326.390625 C 138.972656 323.914062 136.960938 321.902344 134.484375 321.902344 L 115.21875 321.902344 C 112.742188 321.902344 110.730469 323.914062 110.730469 326.390625 Z M 110.730469 370.34375 L 110.730469 408.492188 C 110.730469 410.96875 112.742188 412.980469 115.21875 412.980469 L 134.484375 412.980469 C 136.960938 412.980469 138.972656 410.96875 138.972656 408.492188 L 138.972656 370.34375 C 138.972656 367.867188 136.960938 365.855469 134.484375 365.855469 L 115.21875 365.855469 C 112.742188 365.855469 110.730469 367.867188 110.730469 370.34375 Z M 138.972656 309.519531 L 138.972656 104.382812 C 138.972656 101.90625 136.960938 99.894531 134.484375 99.894531 L 115.21875 99.894531 C 112.742188 99.894531 110.730469 101.90625 110.730469 104.382812 L 110.730469 309.519531 C 110.730469 311.996094 112.742188 314.007812 115.21875 314.007812 L 134.484375 314.007812 C 136.960938 314.007812 138.972656 311.996094 138.972656 309.519531 Z M 138.972656 87.511719 L 138.972656 60.582031 C 138.972656 58.105469 136.960938 56.09375 134.484375 56.09375 L 115.21875 56.09375 C 112.742188 56.09375 110.730469 58.105469 110.730469 60.582031 L 110.730469 87.511719 C 110.730469 89.988281 112.742188 92 115.21875 92 L 134.484375 92 C 136.960938 92 138.972656 89.988281 138.972656 87.511719 Z M 138.972656 87.511719 " fill-opacity="1" fill-rule="evenodd"/></g></g></g></g></g></g></svg>