<svg xmlns="http://www.w3.org/2000/svg" xmlns:xlink="http://www.w3.org/1999/xlink" width="250" zoomAndPan="magnify" viewBox="0 0 187.5 419.999983" height="560" preserveAspectRatio="xMidYMid meet" version="1.0"><defs><clipPath id="2a44a0e976"><path d="M 0.503906 0.835938 L 139.589844 0.835938 L 139.589844 413.328125 L 0.503906 413.328125 Z M 0.503906 0.835938 " clip-rule="nonzero"/></clipPath><clipPath id="7ed461c0eb"><path d="M 143.675781 0.691406 L 176.386719 0.691406 L 176.386719 413.183594 L 143.675781 413.183594 Z M 143.675781 0.691406 " clip-rule="nonzero"/></clipPath><clipPath id="cc7819751a"><path d="M 0.675781 0.691406 L 33.386719 0.691406 L 33.386719 413.15625 L 0.675781 413.15625 Z M 0.675781 0.691406 " clip-rule="nonzero"/></clipPath><clipPath id="9c7821df47"><rect x="0" width="34" y="0" height="414"/></clipPath><clipPath id="36738a4943"><rect x="0" width="177" y="0" height="414"/></clipPath></defs><g transform="matrix(1, 0, 0, 1, 5, 3)"><g clip-path="url(#36738a4943)"><g clip-path="url(#2a44a0e976)"><path fill="#ffe575" d="M 0.613281 44.179688 L 0.613281 6.03125 C 0.613281 3.554688 2.625 1.542969 5.101562 1.542969 L 24.367188 1.542969 C 26.84375 1.542969 28.855469 3.554688 28.855469 6.03125 L 28.855469 44.179688 C 28.855469 46.65625 26.84375 48.667969 24.367188 48.667969 L 5.101562 48.667969 C 2.625 48.667969 0.613281 46.65625 0.613281 44.179688 Z M 37.753906 140.519531 L 37.753906 121.097656 C 37.753906 118.621094 39.765625 116.609375 42.242188 116.609375 L 61.511719 116.609375 C 63.988281 116.609375 66 118.621094 66 121.097656 L 66 140.519531 C 66 142.996094 63.988281 145.007812 61.511719 145.007812 L 42.242188 145.007812 C 39.765625 145.007812 37.753906 142.996094 37.753906 140.519531 Z M 37.523438 322.214844 L 37.523438 302.792969 C 37.523438 300.316406 39.535156 298.304688 42.011719 298.304688 L 61.28125 298.304688 C 63.753906 298.304688 65.769531 300.316406 65.769531 302.792969 L 65.769531 322.214844 C 65.769531 324.691406 63.753906 326.703125 61.28125 326.703125 L 42.011719 326.703125 C 39.535156 326.703125 37.523438 324.691406 37.523438 322.214844 Z M 37.601562 285.84375 L 37.601562 266.421875 C 37.601562 263.945312 39.613281 261.933594 42.089844 261.933594 L 61.355469 261.933594 C 63.832031 261.933594 65.84375 263.945312 65.84375 266.421875 L 65.84375 285.84375 C 65.84375 288.320312 63.832031 290.332031 61.355469 290.332031 L 42.089844 290.332031 C 39.613281 290.332031 37.601562 288.320312 37.601562 285.84375 Z M 37.679688 249.476562 L 37.679688 230.050781 C 37.679688 227.574219 39.691406 225.5625 42.167969 225.5625 L 61.433594 225.5625 C 63.910156 225.5625 65.921875 227.574219 65.921875 230.050781 L 65.921875 249.476562 C 65.921875 251.949219 63.910156 253.964844 61.433594 253.964844 L 42.167969 253.964844 C 39.691406 253.964844 37.679688 251.949219 37.679688 249.476562 Z M 37.753906 213.105469 L 37.753906 193.683594 C 37.753906 191.207031 39.765625 189.195312 42.242188 189.195312 L 61.511719 189.195312 C 63.988281 189.195312 66 191.207031 66 193.683594 L 66 213.105469 C 66 215.582031 63.988281 217.59375 61.511719 217.59375 L 42.242188 217.59375 C 39.765625 217.59375 37.753906 215.582031 37.753906 213.105469 Z M 37.832031 176.734375 L 37.832031 157.3125 C 37.832031 154.835938 39.84375 152.824219 42.320312 152.824219 L 61.589844 152.824219 C 64.066406 152.824219 66.078125 154.835938 66.078125 157.3125 L 66.078125 176.734375 C 66.078125 179.210938 64.066406 181.222656 61.589844 181.222656 L 42.320312 181.222656 C 39.84375 181.222656 37.832031 179.210938 37.832031 176.734375 Z M 37.910156 104.074219 L 37.910156 84.652344 C 37.910156 82.175781 39.921875 80.164062 42.398438 80.164062 L 61.667969 80.164062 C 64.144531 80.164062 66.15625 82.175781 66.15625 84.652344 L 66.15625 104.074219 C 66.15625 106.550781 64.144531 108.5625 61.667969 108.5625 L 42.398438 108.5625 C 39.921875 108.5625 37.910156 106.550781 37.910156 104.074219 Z M 74.125 342.257812 L 74.125 322.832031 C 74.125 320.355469 76.136719 318.34375 78.613281 318.34375 L 97.882812 318.34375 C 100.359375 318.34375 102.371094 320.355469 102.371094 322.832031 L 102.371094 342.257812 C 102.371094 344.730469 100.359375 346.742188 97.882812 346.742188 L 78.613281 346.742188 C 76.136719 346.742188 74.125 344.730469 74.125 342.257812 Z M 74.203125 305.886719 L 74.203125 286.464844 C 74.203125 283.988281 76.214844 281.976562 78.691406 281.976562 L 97.957031 281.976562 C 100.433594 281.976562 102.445312 283.988281 102.445312 286.464844 L 102.445312 305.886719 C 102.445312 308.363281 100.433594 310.375 97.957031 310.375 L 78.691406 310.375 C 76.214844 310.375 74.203125 308.363281 74.203125 305.886719 Z M 74.28125 269.515625 L 74.28125 250.09375 C 74.28125 247.617188 76.292969 245.605469 78.769531 245.605469 L 98.035156 245.605469 C 100.511719 245.605469 102.523438 247.617188 102.523438 250.09375 L 102.523438 269.515625 C 102.523438 271.992188 100.511719 274.003906 98.035156 274.003906 L 78.769531 274.003906 C 76.292969 274.003906 74.28125 271.992188 74.28125 269.515625 Z M 74.355469 233.148438 L 74.355469 213.722656 C 74.355469 211.246094 76.367188 209.234375 78.84375 209.234375 L 98.113281 209.234375 C 100.589844 209.234375 102.601562 211.246094 102.601562 213.722656 L 102.601562 233.148438 C 102.601562 235.625 100.589844 237.636719 98.113281 237.636719 L 78.84375 237.636719 C 76.367188 237.636719 74.355469 235.625 74.355469 233.148438 Z M 74.433594 196.777344 L 74.433594 177.355469 C 74.433594 174.878906 76.445312 172.867188 78.921875 172.867188 L 98.191406 172.867188 C 100.667969 172.867188 102.679688 174.878906 102.679688 177.355469 L 102.679688 196.777344 C 102.679688 199.253906 100.667969 201.265625 98.191406 201.265625 L 78.921875 201.265625 C 76.445312 201.265625 74.433594 199.253906 74.433594 196.777344 Z M 74.511719 160.40625 L 74.511719 140.984375 C 74.511719 138.507812 76.523438 136.496094 79 136.496094 L 98.269531 136.496094 C 100.746094 136.496094 102.757812 138.507812 102.757812 140.984375 L 102.757812 160.40625 C 102.757812 162.882812 100.746094 164.894531 98.269531 164.894531 L 79 164.894531 C 76.523438 164.894531 74.511719 162.882812 74.511719 160.40625 Z M 74.589844 124.039062 L 74.589844 104.617188 C 74.589844 102.140625 76.601562 100.128906 79.078125 100.128906 L 98.34375 100.128906 C 100.820312 100.128906 102.832031 102.140625 102.832031 104.617188 L 102.832031 124.039062 C 102.832031 126.515625 100.820312 128.527344 98.34375 128.527344 L 79.078125 128.527344 C 76.601562 128.527344 74.589844 126.515625 74.589844 124.039062 Z M 74.667969 87.667969 L 74.667969 68.246094 C 74.667969 65.769531 76.679688 63.757812 79.15625 63.757812 L 98.421875 63.757812 C 100.898438 63.757812 102.910156 65.769531 102.910156 68.246094 L 102.910156 87.667969 C 102.910156 90.144531 100.898438 92.15625 98.421875 92.15625 L 79.15625 92.15625 C 76.679688 92.15625 74.667969 90.144531 74.667969 87.667969 Z M 110.726562 315.792969 L 110.726562 296.367188 C 110.726562 293.890625 112.738281 291.878906 115.214844 291.878906 L 134.484375 291.878906 C 136.960938 291.878906 138.972656 293.890625 138.972656 296.367188 L 138.972656 315.792969 C 138.972656 318.265625 136.960938 320.28125 134.484375 320.28125 L 115.214844 320.28125 C 112.738281 320.28125 110.726562 318.265625 110.726562 315.792969 Z M 110.804688 279.421875 L 110.804688 260 C 110.804688 257.523438 112.816406 255.511719 115.292969 255.511719 L 134.558594 255.511719 C 137.035156 255.511719 139.046875 257.523438 139.046875 260 L 139.046875 279.421875 C 139.046875 281.898438 137.035156 283.910156 134.558594 283.910156 L 115.292969 283.910156 C 112.816406 283.910156 110.804688 281.898438 110.804688 279.421875 Z M 110.882812 243.050781 L 110.882812 223.628906 C 110.882812 221.152344 112.894531 219.140625 115.371094 219.140625 L 134.636719 219.140625 C 137.113281 219.140625 139.125 221.152344 139.125 223.628906 L 139.125 243.050781 C 139.125 245.527344 137.113281 247.539062 134.636719 247.539062 L 115.371094 247.539062 C 112.894531 247.539062 110.882812 245.527344 110.882812 243.050781 Z M 110.957031 206.683594 L 110.957031 187.257812 C 110.957031 184.785156 112.972656 182.769531 115.445312 182.769531 L 134.714844 182.769531 C 137.191406 182.769531 139.203125 184.785156 139.203125 187.257812 L 139.203125 206.683594 C 139.203125 209.160156 137.191406 211.171875 134.714844 211.171875 L 115.445312 211.171875 C 112.972656 211.171875 110.957031 209.160156 110.957031 206.683594 Z M 111.035156 170.3125 L 111.035156 150.890625 C 111.035156 148.414062 113.046875 146.402344 115.523438 146.402344 L 134.792969 146.402344 C 137.269531 146.402344 139.28125 148.414062 139.28125 150.890625 L 139.28125 170.3125 C 139.28125 172.789062 137.269531 174.800781 134.792969 174.800781 L 115.523438 174.800781 C 113.046875 174.800781 111.035156 172.789062 111.035156 170.3125 Z M 111.113281 133.941406 L 111.113281 114.519531 C 111.113281 112.042969 113.125 110.03125 115.601562 110.03125 L 134.871094 110.03125 C 137.347656 110.03125 139.359375 112.042969 139.359375 114.519531 L 139.359375 133.941406 C 139.359375 136.417969 137.347656 138.429688 134.871094 138.429688 L 115.601562 138.429688 C 113.125 138.429688 111.113281 136.417969 111.113281 133.941406 Z M 111.191406 97.574219 L 111.191406 78.152344 C 111.191406 75.675781 113.203125 73.664062 115.679688 73.664062 L 134.945312 73.664062 C 137.421875 73.664062 139.433594 75.675781 139.433594 78.152344 L 139.433594 97.574219 C 139.433594 100.050781 137.421875 102.0625 134.945312 102.0625 L 115.679688 102.0625 C 113.203125 102.0625 111.191406 100.050781 111.191406 97.574219 Z M 111.269531 61.203125 L 111.269531 41.78125 C 111.269531 39.304688 113.28125 37.292969 115.757812 37.292969 L 135.023438 37.292969 C 137.5 37.292969 139.511719 39.304688 139.511719 41.78125 L 139.511719 61.203125 C 139.511719 63.679688 137.5 65.691406 135.023438 65.691406 L 115.757812 65.691406 C 113.28125 65.691406 111.269531 63.679688 111.269531 61.203125 Z M 111.34375 24.835938 L 111.34375 5.410156 C 111.34375 2.933594 113.359375 0.921875 115.832031 0.921875 L 135.101562 0.921875 C 137.578125 0.921875 139.589844 2.933594 139.589844 5.410156 L 139.589844 24.835938 C 139.589844 27.3125 137.578125 29.324219 135.101562 29.324219 L 115.832031 29.324219 C 113.359375 29.324219 111.34375 27.3125 111.34375 24.835938 Z M 110.496094 408.804688 L 110.496094 333.28125 C 110.496094 330.804688 112.507812 328.792969 114.984375 328.792969 L 134.25 328.792969 C 136.726562 328.792969 138.738281 330.804688 138.738281 333.28125 L 138.738281 408.804688 C 138.738281 411.28125 136.726562 413.292969 134.25 413.292969 L 114.984375 413.292969 C 112.507812 413.292969 110.496094 411.28125 110.496094 408.804688 Z M 37.601562 408.804688 L 37.601562 339.160156 C 37.601562 336.683594 39.613281 334.671875 42.089844 334.671875 L 61.355469 334.671875 C 63.832031 334.671875 65.84375 336.683594 65.84375 339.160156 L 65.84375 408.804688 C 65.84375 411.28125 63.832031 413.292969 61.355469 413.292969 L 42.089844 413.292969 C 39.613281 413.292969 37.601562 411.28125 37.601562 408.804688 Z M 74.898438 408.804688 L 74.898438 359.589844 C 74.898438 357.113281 76.910156 355.101562 79.386719 355.101562 L 98.65625 355.101562 C 101.132812 355.101562 103.144531 357.113281 103.144531 359.589844 L 103.144531 408.804688 C 103.144531 411.28125 101.132812 413.292969 98.65625 413.292969 L 79.386719 413.292969 C 76.910156 413.292969 74.898438 411.28125 74.898438 408.804688 Z M 74.898438 50.988281 L 74.898438 5.335938 C 74.898438 2.859375 76.910156 0.847656 79.386719 0.847656 L 98.65625 0.847656 C 101.132812 0.847656 103.144531 2.859375 103.144531 5.335938 L 103.144531 50.988281 C 103.144531 53.464844 101.132812 55.476562 98.65625 55.476562 L 79.386719 55.476562 C 76.910156 55.476562 74.898438 53.464844 74.898438 50.988281 Z M 38.453125 67.164062 L 38.453125 5.410156 C 38.453125 2.933594 40.464844 0.921875 42.941406 0.921875 L 62.207031 0.921875 C 64.683594 0.921875 66.695312 2.933594 66.695312 5.410156 L 66.695312 67.164062 C 66.695312 69.636719 64.683594 71.652344 62.207031 71.652344 L 42.941406 71.652344 C 40.464844 71.652344 38.453125 69.636719 38.453125 67.164062 Z M 29.476562 326.394531 L 29.476562 353.320312 C 29.476562 355.796875 27.464844 357.808594 24.988281 357.808594 L 5.71875 357.808594 C 3.242188 357.808594 1.230469 355.796875 1.230469 353.320312 L 1.230469 326.394531 C 1.230469 323.917969 3.242188 321.90625 5.71875 321.90625 L 24.988281 321.90625 C 27.464844 321.90625 29.476562 323.917969 29.476562 326.394531 Z M 29.476562 370.34375 L 29.476562 408.496094 C 29.476562 410.972656 27.464844 412.984375 24.988281 412.984375 L 5.71875 412.984375 C 3.242188 412.984375 1.230469 410.972656 1.230469 408.496094 L 1.230469 370.34375 C 1.230469 367.871094 3.242188 365.859375 5.71875 365.859375 L 24.988281 365.859375 C 27.464844 365.859375 29.476562 367.871094 29.476562 370.34375 Z M 1.230469 309.523438 L 1.230469 104.382812 C 1.230469 101.90625 3.242188 99.894531 5.71875 99.894531 L 24.988281 99.894531 C 27.464844 99.894531 29.476562 101.90625 29.476562 104.382812 L 29.476562 309.523438 C 29.476562 312 27.464844 314.011719 24.988281 314.011719 L 5.71875 314.011719 C 3.242188 314.011719 1.230469 312 1.230469 309.523438 Z M 1.230469 87.515625 L 1.230469 60.585938 C 1.230469 58.109375 3.242188 56.097656 5.71875 56.097656 L 24.988281 56.097656 C 27.464844 56.097656 29.476562 58.109375 29.476562 60.585938 L 29.476562 87.515625 C 29.476562 89.988281 27.464844 92.003906 24.988281 92.003906 L 5.71875 92.003906 C 3.242188 92.003906 1.230469 89.988281 1.230469 87.515625 Z M 1.230469 87.515625 " fill-opacity="1" fill-rule="evenodd"/></g><g clip-path="url(#7ed461c0eb)"><g transform="matrix(1, 0, 0, 1, 143, -0.000000000000001332)"><g clip-path="url(#9c7821df47)"><g clip-path="url(#cc7819751a)"><path fill="#ffe575" d="M -105.589844 369.8125 L -105.589844 407.964844 C -105.589844 410.441406 -103.578125 412.453125 -101.101562 412.453125 L -81.835938 412.453125 C -79.359375 412.453125 -77.347656 410.441406 -77.347656 407.964844 L -77.347656 369.8125 C -77.347656 367.335938 -79.359375 365.324219 -81.835938 365.324219 L -101.101562 365.324219 C -103.578125 365.324219 -105.589844 367.335938 -105.589844 369.8125 Z M -68.449219 273.472656 L -68.449219 292.894531 C -68.449219 295.371094 -66.4375 297.382812 -63.960938 297.382812 L -44.691406 297.382812 C -42.214844 297.382812 -40.203125 295.371094 -40.203125 292.894531 L -40.203125 273.472656 C -40.203125 270.996094 -42.214844 268.984375 -44.691406 268.984375 L -63.960938 268.984375 C -66.4375 268.984375 -68.449219 270.996094 -68.449219 273.472656 Z M -68.679688 91.78125 L -68.679688 111.203125 C -68.679688 113.679688 -66.667969 115.691406 -64.191406 115.691406 L -44.921875 115.691406 C -42.449219 115.691406 -40.433594 113.679688 -40.433594 111.203125 L -40.433594 91.78125 C -40.433594 89.304688 -42.449219 87.292969 -44.921875 87.292969 L -64.191406 87.292969 C -66.667969 87.292969 -68.679688 89.304688 -68.679688 91.78125 Z M -68.601562 128.148438 L -68.601562 147.574219 C -68.601562 150.050781 -66.589844 152.0625 -64.113281 152.0625 L -44.847656 152.0625 C -42.371094 152.0625 -40.359375 150.050781 -40.359375 147.574219 L -40.359375 128.148438 C -40.359375 125.671875 -42.371094 123.660156 -44.847656 123.660156 L -64.113281 123.660156 C -66.589844 123.660156 -68.601562 125.671875 -68.601562 128.148438 Z M -68.523438 164.519531 L -68.523438 183.941406 C -68.523438 186.417969 -66.511719 188.429688 -64.035156 188.429688 L -44.769531 188.429688 C -42.292969 188.429688 -40.28125 186.417969 -40.28125 183.941406 L -40.28125 164.519531 C -40.28125 162.042969 -42.292969 160.03125 -44.769531 160.03125 L -64.035156 160.03125 C -66.511719 160.03125 -68.523438 162.042969 -68.523438 164.519531 Z M -68.449219 200.890625 L -68.449219 220.3125 C -68.449219 222.789062 -66.4375 224.800781 -63.960938 224.800781 L -44.691406 224.800781 C -42.214844 224.800781 -40.203125 222.789062 -40.203125 220.3125 L -40.203125 200.890625 C -40.203125 198.414062 -42.214844 196.402344 -44.691406 196.402344 L -63.960938 196.402344 C -66.4375 196.402344 -68.449219 198.414062 -68.449219 200.890625 Z M -68.371094 237.257812 L -68.371094 256.679688 C -68.371094 259.15625 -66.359375 261.167969 -63.882812 261.167969 L -44.613281 261.167969 C -42.136719 261.167969 -40.125 259.15625 -40.125 256.679688 L -40.125 237.257812 C -40.125 234.78125 -42.136719 232.769531 -44.613281 232.769531 L -63.882812 232.769531 C -66.359375 232.769531 -68.371094 234.78125 -68.371094 237.257812 Z M -68.292969 309.921875 L -68.292969 329.34375 C -68.292969 331.820312 -66.28125 333.832031 -63.804688 333.832031 L -44.535156 333.832031 C -42.058594 333.832031 -40.046875 331.820312 -40.046875 329.34375 L -40.046875 309.921875 C -40.046875 307.445312 -42.058594 305.433594 -44.535156 305.433594 L -63.804688 305.433594 C -66.28125 305.433594 -68.292969 307.445312 -68.292969 309.921875 Z M -32.078125 71.738281 L -32.078125 91.160156 C -32.078125 93.636719 -30.066406 95.648438 -27.589844 95.648438 L -8.320312 95.648438 C -5.84375 95.648438 -3.832031 93.636719 -3.832031 91.160156 L -3.832031 71.738281 C -3.832031 69.261719 -5.84375 67.25 -8.320312 67.25 L -27.589844 67.25 C -30.066406 67.25 -32.078125 69.261719 -32.078125 71.738281 Z M -32 108.109375 L -32 127.53125 C -32 130.007812 -29.988281 132.019531 -27.511719 132.019531 L -8.246094 132.019531 C -5.769531 132.019531 -3.757812 130.007812 -3.757812 127.53125 L -3.757812 108.109375 C -3.757812 105.632812 -5.769531 103.621094 -8.246094 103.621094 L -27.511719 103.621094 C -29.988281 103.621094 -32 105.632812 -32 108.109375 Z M -31.921875 144.476562 L -31.921875 163.898438 C -31.921875 166.375 -29.910156 168.386719 -27.433594 168.386719 L -8.167969 168.386719 C -5.691406 168.386719 -3.679688 166.375 -3.679688 163.898438 L -3.679688 144.476562 C -3.679688 142 -5.691406 139.988281 -8.167969 139.988281 L -27.433594 139.988281 C -29.910156 139.988281 -31.921875 142 -31.921875 144.476562 Z M -31.847656 180.847656 L -31.847656 200.269531 C -31.847656 202.746094 -29.832031 204.757812 -27.359375 204.757812 L -8.089844 204.757812 C -5.613281 204.757812 -3.601562 202.746094 -3.601562 200.269531 L -3.601562 180.847656 C -3.601562 178.371094 -5.613281 176.359375 -8.089844 176.359375 L -27.359375 176.359375 C -29.832031 176.359375 -31.847656 178.371094 -31.847656 180.847656 Z M -31.769531 217.214844 L -31.769531 236.640625 C -31.769531 239.117188 -29.757812 241.128906 -27.28125 241.128906 L -8.011719 241.128906 C -5.535156 241.128906 -3.523438 239.117188 -3.523438 236.640625 L -3.523438 217.214844 C -3.523438 214.742188 -5.535156 212.726562 -8.011719 212.726562 L -27.28125 212.726562 C -29.757812 212.726562 -31.769531 214.742188 -31.769531 217.214844 Z M -31.691406 253.585938 L -31.691406 273.007812 C -31.691406 275.484375 -29.679688 277.496094 -27.203125 277.496094 L -7.933594 277.496094 C -5.457031 277.496094 -3.445312 275.484375 -3.445312 273.007812 L -3.445312 253.585938 C -3.445312 251.109375 -5.457031 249.097656 -7.933594 249.097656 L -27.203125 249.097656 C -29.679688 249.097656 -31.691406 251.109375 -31.691406 253.585938 Z M -31.613281 289.957031 L -31.613281 309.378906 C -31.613281 311.855469 -29.601562 313.867188 -27.125 313.867188 L -7.859375 313.867188 C -5.382812 313.867188 -3.371094 311.855469 -3.371094 309.378906 L -3.371094 289.957031 C -3.371094 287.480469 -5.382812 285.46875 -7.859375 285.46875 L -27.125 285.46875 C -29.601562 285.46875 -31.613281 287.480469 -31.613281 289.957031 Z M -31.535156 326.324219 L -31.535156 345.75 C -31.535156 348.222656 -29.523438 350.238281 -27.046875 350.238281 L -7.78125 350.238281 C -5.304688 350.238281 -3.292969 348.222656 -3.292969 345.75 L -3.292969 326.324219 C -3.292969 323.847656 -5.304688 321.835938 -7.78125 321.835938 L -27.046875 321.835938 C -29.523438 321.835938 -31.535156 323.847656 -31.535156 326.324219 Z M 4.523438 98.203125 L 4.523438 117.625 C 4.523438 120.101562 6.535156 122.113281 9.011719 122.113281 L 28.28125 122.113281 C 30.757812 122.113281 32.769531 120.101562 32.769531 117.625 L 32.769531 98.203125 C 32.769531 95.726562 30.757812 93.714844 28.28125 93.714844 L 9.011719 93.714844 C 6.535156 93.714844 4.523438 95.726562 4.523438 98.203125 Z M 4.601562 134.574219 L 4.601562 153.996094 C 4.601562 156.472656 6.613281 158.484375 9.089844 158.484375 L 28.355469 158.484375 C 30.832031 158.484375 32.84375 156.472656 32.84375 153.996094 L 32.84375 134.574219 C 32.84375 132.097656 30.832031 130.085938 28.355469 130.085938 L 9.089844 130.085938 C 6.613281 130.085938 4.601562 132.097656 4.601562 134.574219 Z M 4.679688 170.941406 L 4.679688 190.363281 C 4.679688 192.839844 6.691406 194.851562 9.167969 194.851562 L 28.433594 194.851562 C 30.910156 194.851562 32.921875 192.839844 32.921875 190.363281 L 32.921875 170.941406 C 32.921875 168.464844 30.910156 166.453125 28.433594 166.453125 L 9.167969 166.453125 C 6.691406 166.453125 4.679688 168.464844 4.679688 170.941406 Z M 4.753906 207.3125 L 4.753906 226.734375 C 4.753906 229.210938 6.769531 231.222656 9.242188 231.222656 L 28.511719 231.222656 C 30.988281 231.222656 33 229.210938 33 226.734375 L 33 207.3125 C 33 204.835938 30.988281 202.824219 28.511719 202.824219 L 9.242188 202.824219 C 6.769531 202.824219 4.753906 204.835938 4.753906 207.3125 Z M 4.832031 243.679688 L 4.832031 263.105469 C 4.832031 265.582031 6.84375 267.59375 9.320312 267.59375 L 28.589844 267.59375 C 31.066406 267.59375 33.078125 265.582031 33.078125 263.105469 L 33.078125 243.679688 C 33.078125 241.203125 31.066406 239.191406 28.589844 239.191406 L 9.320312 239.191406 C 6.84375 239.191406 4.832031 241.203125 4.832031 243.679688 Z M 4.910156 280.050781 L 4.910156 299.472656 C 4.910156 301.949219 6.921875 303.960938 9.398438 303.960938 L 28.667969 303.960938 C 31.144531 303.960938 33.15625 301.949219 33.15625 299.472656 L 33.15625 280.050781 C 33.15625 277.574219 31.144531 275.5625 28.667969 275.5625 L 9.398438 275.5625 C 6.921875 275.5625 4.910156 277.574219 4.910156 280.050781 Z M 4.988281 316.421875 L 4.988281 335.84375 C 4.988281 338.320312 7 340.332031 9.476562 340.332031 L 28.746094 340.332031 C 31.21875 340.332031 33.234375 338.320312 33.234375 335.84375 L 33.234375 316.421875 C 33.234375 313.945312 31.21875 311.933594 28.746094 311.933594 L 9.476562 311.933594 C 7 311.933594 4.988281 313.945312 4.988281 316.421875 Z M 5.066406 352.789062 L 5.066406 372.214844 C 5.066406 374.6875 7.078125 376.699219 9.554688 376.699219 L 28.820312 376.699219 C 31.296875 376.699219 33.308594 374.6875 33.308594 372.214844 L 33.308594 352.789062 C 33.308594 350.3125 31.296875 348.300781 28.820312 348.300781 L 9.554688 348.300781 C 7.078125 348.300781 5.066406 350.3125 5.066406 352.789062 Z M 5.144531 389.160156 L 5.144531 408.582031 C 5.144531 411.058594 7.15625 413.070312 9.632812 413.070312 L 28.898438 413.070312 C 31.375 413.070312 33.386719 411.058594 33.386719 408.582031 L 33.386719 389.160156 C 33.386719 386.683594 31.375 384.671875 28.898438 384.671875 L 9.632812 384.671875 C 7.15625 384.671875 5.144531 386.683594 5.144531 389.160156 Z M 4.292969 5.191406 L 4.292969 80.714844 C 4.292969 83.191406 6.304688 85.203125 8.78125 85.203125 L 28.046875 85.203125 C 30.523438 85.203125 32.535156 83.191406 32.535156 80.714844 L 32.535156 5.191406 C 32.535156 2.714844 30.523438 0.703125 28.046875 0.703125 L 8.78125 0.703125 C 6.304688 0.703125 4.292969 2.714844 4.292969 5.191406 Z M -68.601562 5.191406 L -68.601562 74.832031 C -68.601562 77.308594 -66.589844 79.320312 -64.113281 79.320312 L -44.847656 79.320312 C -42.371094 79.320312 -40.359375 77.308594 -40.359375 74.832031 L -40.359375 5.191406 C -40.359375 2.714844 -42.371094 0.703125 -44.847656 0.703125 L -64.113281 0.703125 C -66.589844 0.703125 -68.601562 2.714844 -68.601562 5.191406 Z M -31.304688 5.191406 L -31.304688 54.40625 C -31.304688 56.878906 -29.292969 58.894531 -26.816406 58.894531 L -7.546875 58.894531 C -5.070312 58.894531 -3.058594 56.878906 -3.058594 54.40625 L -3.058594 5.191406 C -3.058594 2.714844 -5.070312 0.703125 -7.546875 0.703125 L -26.816406 0.703125 C -29.292969 0.703125 -31.304688 2.714844 -31.304688 5.191406 Z M -31.304688 363.003906 L -31.304688 408.660156 C -31.304688 411.136719 -29.292969 413.148438 -26.816406 413.148438 L -7.546875 413.148438 C -5.070312 413.148438 -3.058594 411.136719 -3.058594 408.660156 L -3.058594 363.003906 C -3.058594 360.527344 -5.070312 358.515625 -7.546875 358.515625 L -26.816406 358.515625 C -29.292969 358.515625 -31.304688 360.527344 -31.304688 363.003906 Z M -67.75 346.832031 L -67.75 408.582031 C -67.75 411.058594 -65.738281 413.070312 -63.261719 413.070312 L -43.996094 413.070312 C -41.519531 413.070312 -39.507812 411.058594 -39.507812 408.582031 L -39.507812 346.832031 C -39.507812 344.355469 -41.519531 342.34375 -43.996094 342.34375 L -63.261719 342.34375 C -65.738281 342.34375 -67.75 344.355469 -67.75 346.832031 Z M -76.726562 87.601562 L -76.726562 60.671875 C -76.726562 58.195312 -78.738281 56.183594 -81.214844 56.183594 L -100.484375 56.183594 C -102.960938 56.183594 -104.972656 58.195312 -104.972656 60.671875 L -104.972656 87.601562 C -104.972656 90.078125 -102.960938 92.089844 -100.484375 92.089844 L -81.214844 92.089844 C -78.738281 92.089844 -76.726562 90.078125 -76.726562 87.601562 Z M -76.726562 43.648438 L -76.726562 5.5 C -76.726562 3.023438 -78.738281 1.011719 -81.214844 1.011719 L -100.484375 1.011719 C -102.960938 1.011719 -104.972656 3.023438 -104.972656 5.5 L -104.972656 43.648438 C -104.972656 46.125 -102.960938 48.136719 -100.484375 48.136719 L -81.214844 48.136719 C -78.738281 48.136719 -76.726562 46.125 -76.726562 43.648438 Z M -104.972656 104.472656 L -104.972656 309.609375 C -104.972656 312.085938 -102.960938 314.097656 -100.484375 314.097656 L -81.214844 314.097656 C -78.738281 314.097656 -76.726562 312.085938 -76.726562 309.609375 L -76.726562 104.472656 C -76.726562 101.996094 -78.738281 99.984375 -81.214844 99.984375 L -100.484375 99.984375 C -102.960938 99.984375 -104.972656 101.996094 -104.972656 104.472656 Z M -104.972656 326.480469 L -104.972656 353.410156 C -104.972656 355.886719 -102.960938 357.898438 -100.484375 357.898438 L -81.214844 357.898438 C -78.738281 357.898438 -76.726562 355.886719 -76.726562 353.410156 L -76.726562 326.480469 C -76.726562 324.003906 -78.738281 321.992188 -81.214844 321.992188 L -100.484375 321.992188 C -102.960938 321.992188 -104.972656 324.003906 -104.972656 326.480469 Z M -104.972656 326.480469 " fill-opacity="1" fill-rule="evenodd"/></g></g></g></g></g></g></svg>